<svg xmlns="http://www.w3.org/2000/svg" xmlns:xlink="http://www.w3.org/1999/xlink" viewBox="0 0 1000 1000" width="1000"
    height="1000" preserveAspectRatio="xMidYMid meet"
    style="width: 100%; height: 100%; transform: translate3d(0px, 0px, 0px); content-visibility: visible;">
    <defs>
        <clipPath id="__lottie_element_3990">
            <rect width="1000" height="1000" x="0" y="0"></rect>
        </clipPath>
        <linearGradient id="__lottie_element_3994" spreadMethod="pad" gradientUnits="userSpaceOnUse" x1="-0.5" y1="-262"
            x2="-0.5" y2="262">
            <stop offset="0%" stop-color="rgb(198,204,240)"></stop>
            <stop offset="50%" stop-color="rgb(215,221,246)"></stop>
            <stop offset="100%" stop-color="rgb(233,237,251)"></stop>
        </linearGradient>
        <linearGradient id="__lottie_element_3998" spreadMethod="pad" gradientUnits="userSpaceOnUse" x1="-0.5" y1="98.5"
            x2="-0.5" y2="-98.5">
            <stop offset="0%" stop-color="rgb(88,80,125)"></stop>
            <stop offset="50%" stop-color="rgb(114,106,152)"></stop>
            <stop offset="100%" stop-color="rgb(140,132,180)"></stop>
        </linearGradient>
        <linearGradient id="__lottie_element_4002" spreadMethod="pad" gradientUnits="userSpaceOnUse" x1="-0.5"
            y1="-98.27100372314453" x2="-0.5" y2="98.24299621582031">
            <stop offset="0%" stop-color="rgb(240,243,252)"></stop>
            <stop offset="29%" stop-color="rgb(236,239,251)"></stop>
            <stop offset="58%" stop-color="rgb(232,236,250)"></stop>
            <stop offset="69%" stop-color="rgb(223,228,248)"></stop>
            <stop offset="80%" stop-color="rgb(215,220,245)"></stop>
            <stop offset="90%" stop-color="rgb(207,212,243)"></stop>
            <stop offset="100%" stop-color="rgb(198,204,240)"></stop>
        </linearGradient>
        <linearGradient id="__lottie_element_4006" spreadMethod="pad" gradientUnits="userSpaceOnUse" x1="-0.5"
            y1="-98.27100372314453" x2="-0.5" y2="98.24299621582031">
            <stop offset="0%" stop-color="rgb(240,243,252)"></stop>
            <stop offset="29%" stop-color="rgb(236,239,251)"></stop>
            <stop offset="58%" stop-color="rgb(232,236,250)"></stop>
            <stop offset="69%" stop-color="rgb(223,228,248)"></stop>
            <stop offset="80%" stop-color="rgb(215,220,245)"></stop>
            <stop offset="90%" stop-color="rgb(207,212,243)"></stop>
            <stop offset="100%" stop-color="rgb(198,204,240)"></stop>
        </linearGradient>
        <linearGradient id="__lottie_element_4010" spreadMethod="pad" gradientUnits="userSpaceOnUse" x1="-0.5"
            y1="-98.27100372314453" x2="-0.5" y2="98.24299621582031">
            <stop offset="0%" stop-color="rgb(240,243,252)"></stop>
            <stop offset="29%" stop-color="rgb(236,239,251)"></stop>
            <stop offset="58%" stop-color="rgb(232,236,250)"></stop>
            <stop offset="69%" stop-color="rgb(223,228,248)"></stop>
            <stop offset="80%" stop-color="rgb(215,220,245)"></stop>
            <stop offset="90%" stop-color="rgb(207,212,243)"></stop>
            <stop offset="100%" stop-color="rgb(198,204,240)"></stop>
        </linearGradient>
        <linearGradient id="__lottie_element_4015" spreadMethod="pad" gradientUnits="userSpaceOnUse"
            x1="-0.039000000804662704" y1="-17.229000091552734" x2="-0.039000000804662704" y2="16.58799934387207">
            <stop offset="0%" stop-color="rgb(88,80,125)"></stop>
            <stop offset="50%" stop-color="rgb(114,106,152)"></stop>
            <stop offset="100%" stop-color="rgb(140,132,180)"></stop>
        </linearGradient>
        <linearGradient id="__lottie_element_4019" spreadMethod="pad" gradientUnits="userSpaceOnUse"
            x1="38.0260009765625" y1="-0.4359999895095825" x2="-37.10599899291992" y2="-0.4359999895095825">
            <stop offset="0%" stop-color="rgb(140,132,180)"></stop>
            <stop offset="50%" stop-color="rgb(114,106,152)"></stop>
            <stop offset="100%" stop-color="rgb(88,80,125)"></stop>
        </linearGradient>
        <linearGradient id="__lottie_element_4023" spreadMethod="pad" gradientUnits="userSpaceOnUse"
            x1="38.0260009765625" y1="-0.26499998569488525" x2="-37.10599899291992" y2="-0.26499998569488525">
            <stop offset="0%" stop-color="rgb(140,132,180)"></stop>
            <stop offset="50%" stop-color="rgb(114,106,152)"></stop>
            <stop offset="100%" stop-color="rgb(88,80,125)"></stop>
        </linearGradient>
    </defs>
    <g clip-path="url(#__lottie_element_3990)">
        <g transform="matrix(1,0,0,0.9984121918678284,500.5,637.5869140625)" opacity="1" style="display: block;">
            <g opacity="1" transform="matrix(1,0,0,1,0,0)">
                <path fill="url(#__lottie_element_3994)" fill-opacity="1"
                    d=" M-382.5,-262 C-382.5,-262 -382.5,162.843994140625 -382.5,162.843994140625 C-382.5,189.14500427246094 -371.79400634765625,214.3419952392578 -353.7279968261719,232.96400451660156 C-334.98199462890625,251.53700256347656 -309.54400634765625,262 -283.4519958496094,262 C-136.8730010986328,262 136.20599365234375,262 282.7850036621094,262 C309.5570068359375,262 334.31500244140625,251.53700256347656 353.0610046386719,232.96400451660156 C371.79400634765625,214.3419952392578 382.5,189.14500427246094 382.5,162.843994140625 C382.5,162.843994140625 382.5,-262 382.5,-262 C382.5,-262 -382.5,-262 -382.5,-262z">
                </path>
            </g>
        </g>
        <g transform="matrix(1,0,0,1,500.5,277.5)" opacity="1" style="display: block;">
            <g opacity="1" transform="matrix(1,0,0,1,0,0)">
                <path fill="url(#__lottie_element_3998)" fill-opacity="1"
                    d=" M283.4519958496094,-98.5 C136.8730010986328,-98.5 -136.20599365234375,-98.5 -282.7850036621094,-98.5 C-337.6619873046875,-98.5 -382.5,-53.96900177001953 -382.5,0.9739999771118164 C-382.5,0.9739999771118164 -382.5,98.5 -382.5,98.5 C-382.5,98.5 382.5,98.5 382.5,98.5 C382.5,98.5 382.5,0.9739999771118164 382.5,0.9739999771118164 C382.5,-53.96900177001953 338.3290100097656,-98.5 283.4519958496094,-98.5z">
                </path>
            </g>
        </g>
        <g transform="matrix(1,0,0,1,302.5,198.27099609375)" opacity="1" style="display: block;">
            <g opacity="1" transform="matrix(1,0,0,1,0,0)">
                <path fill="url(#__lottie_element_4002)" fill-opacity="1"
                    d=" M29.77199935913086,-85.77999877929688 C21.968000411987305,-93.7699966430664 11.293000221252441,-98.25700378417969 -0.20000000298023224,-98.25700378417969 C-11.291999816894531,-98.25700378417969 -22.37700080871582,-93.7699966430664 -30.180999755859375,-85.77999877929688 C-37.98500061035156,-77.84500122070312 -42.5,-67.00900268554688 -42.5,-55.736000061035156 C-42.5,-22.73699951171875 -42.5,22.79199981689453 -42.5,55.736000061035156 C-42.5,67.00900268554688 -37.98500061035156,77.84500122070312 -30.180999755859375,85.83499908447266 C-22.37700080871582,93.7699966430664 -11.291999816894531,98.25700378417969 -0.20000000298023224,98.25700378417969 C11.293000221252441,98.25700378417969 21.968000411987305,93.7699966430664 29.77199935913086,85.83499908447266 C37.98500061035156,77.84500122070312 42.5,67.00900268554688 42.5,55.736000061035156 C42.5,22.79199981689453 42.5,-22.73699951171875 42.5,-55.736000061035156 C42.5,-67.00900268554688 37.98500061035156,-77.84500122070312 29.77199935913086,-85.77999877929688z">
                </path>
            </g>
        </g>
        <g transform="matrix(1,0,0,1,698.5,198.27099609375)" opacity="1" style="display: block;">
            <g opacity="1" transform="matrix(1,0,0,1,0,0)">
                <path fill="url(#__lottie_element_4006)" fill-opacity="1"
                    d=" M30.180999755859375,-85.77999877929688 C22.37700080871582,-93.7699966430664 11.291999816894531,-98.25700378417969 0.20000000298023224,-98.25700378417969 C-11.293000221252441,-98.25700378417969 -21.968000411987305,-93.7699966430664 -29.77199935913086,-85.77999877929688 C-37.98500061035156,-77.84500122070312 -42.5,-67.00900268554688 -42.5,-55.736000061035156 C-42.5,-22.73699951171875 -42.5,22.79199981689453 -42.5,55.736000061035156 C-42.5,67.00900268554688 -37.98500061035156,77.84500122070312 -29.77199935913086,85.83499908447266 C-21.968000411987305,93.7699966430664 -11.293000221252441,98.25700378417969 0.20000000298023224,98.25700378417969 C11.291999816894531,98.25700378417969 22.37700080871582,93.7699966430664 30.180999755859375,85.83499908447266 C37.98500061035156,77.84500122070312 42.5,67.00900268554688 42.5,55.736000061035156 C42.5,22.79199981689453 42.5,-22.73699951171875 42.5,-55.736000061035156 C42.5,-67.00900268554688 37.98500061035156,-77.84500122070312 30.180999755859375,-85.77999877929688z">
                </path>
            </g>
        </g>
        <g transform="matrix(1,0,0,1,500.5,198.27099609375)" opacity="1" style="display: block;">
            <g opacity="1" transform="matrix(1,0,0,1,0,0)">
                <path fill="url(#__lottie_element_4010)" fill-opacity="1"
                    d=" M30.180999755859375,-85.77999877929688 C22.37700080871582,-93.7699966430664 11.291999816894531,-98.25700378417969 0.20000000298023224,-98.25700378417969 C-11.293000221252441,-98.25700378417969 -21.968000411987305,-93.7699966430664 -29.77199935913086,-85.77999877929688 C-37.98500061035156,-77.84500122070312 -42.5,-67.00900268554688 -42.5,-55.736000061035156 C-42.5,-22.73699951171875 -42.5,22.79199981689453 -42.5,55.736000061035156 C-42.5,67.00900268554688 -37.98500061035156,77.84500122070312 -29.77199935913086,85.83499908447266 C-21.968000411987305,93.7699966430664 -11.293000221252441,98.25700378417969 0.20000000298023224,98.25700378417969 C11.291999816894531,98.25700378417969 22.37700080871582,93.7699966430664 30.180999755859375,85.83499908447266 C37.98500061035156,77.84500122070312 42.5,67.00900268554688 42.5,55.736000061035156 C42.5,22.79199981689453 42.5,-22.73699951171875 42.5,-55.736000061035156 C42.5,-67.00900268554688 37.98500061035156,-77.84500122070312 30.180999755859375,-85.77999877929688z">
                </path>
            </g>
        </g>
        <g transform="matrix(1.6986265182495117,0,0,1.6959294080734253,500.4759521484375,679.1915283203125)" opacity="1"
            style="display: block;">
            <g opacity="1" transform="matrix(1,0,0,1,0,0)">
                <path fill="url(#__lottie_element_4015)" fill-opacity="1"
                    d=" M33.88600158691406,-2.759000062942505 C25.23200035095215,-11.5 13.11299991607666,-16.908000946044922 0.13199999928474426,-16.908000946044922 C-13.279999732971191,-16.908000946044922 -25.395999908447266,-11.5 -34.04999923706055,-2.759000062942505 C-38.37699890136719,1.784999966621399 -38.37699890136719,9.097999572753906 -34.04999923706055,13.555000305175781 C-29.29199981689453,18.05500030517578 -21.934999465942383,18.01099967956543 -17.607999801635742,13.51099967956543 C-13.281000137329102,8.967000007629395 -6.789999961853027,6.15500020980835 0.13199999928474426,6.15500020980835 C7.058000087738037,6.15500020980835 13.11299991607666,8.967000007629395 17.440000534057617,13.51099967956543 C22.20199966430664,18.01099967956543 29.55900001525879,18.05500030517578 33.88600158691406,13.555000305175781 C38.2130012512207,9.097999572753906 38.64400100708008,1.784999966621399 33.88600158691406,-2.759000062942505z">
                </path>
            </g>
        </g>
        <g transform="matrix(0,-1.2380306720733643,1.2400000095367432,0,347.18963623046875,630.60888671875)" opacity="1"
            style="display: block;">
            <g opacity="1" transform="matrix(1,0,0,1,0,0)">
                <path fill="url(#__lottie_element_4019)" fill-opacity="1"
                    d=" M0,-37.570499420166016 C20.732675552368164,-37.570499420166016 37.566001892089844,-20.735158920288086 37.566001892089844,0 C37.566001892089844,20.735158920288086 20.732675552368164,37.570499420166016 0,37.570499420166016 C-20.732675552368164,37.570499420166016 -37.566001892089844,20.735158920288086 -37.566001892089844,0 C-37.566001892089844,-20.735158920288086 -20.732675552368164,-37.570499420166016 0,-37.570499420166016z">
                </path>
            </g>
        </g>
        <g transform="matrix(0,-1.2380306720733643,1.2400000095367432,0,652.017578125,630.60888671875)" opacity="1"
            style="display: block;">
            <g opacity="1" transform="matrix(1,0,0,1,0,0)">
                <path fill="url(#__lottie_element_4023)" fill-opacity="1"
                    d=" M0,-37.570499420166016 C20.732675552368164,-37.570499420166016 37.566001892089844,-20.735158920288086 37.566001892089844,0 C37.566001892089844,20.735158920288086 20.732675552368164,37.570499420166016 0,37.570499420166016 C-20.732675552368164,37.570499420166016 -37.566001892089844,20.735158920288086 -37.566001892089844,0 C-37.566001892089844,-20.735158920288086 -20.732675552368164,-37.570499420166016 0,-37.570499420166016z">
                </path>
            </g>
        </g>
    </g>
</svg>